<svg xmlns="http://www.w3.org/2000/svg" xmlns:xlink="http://www.w3.org/1999/xlink" width="500" zoomAndPan="magnify" viewBox="0 0 375 374.999991" height="500" preserveAspectRatio="xMidYMid meet" version="1.0"><defs><clipPath id="d6bd5215d1"><path d="M 89 41.449219 L 231 41.449219 L 231 185 L 89 185 Z M 89 41.449219 " clip-rule="nonzero"/></clipPath><clipPath id="5768727d67"><path d="M 146 185 L 288 185 L 288 324.199219 L 146 324.199219 Z M 146 185 " clip-rule="nonzero"/></clipPath></defs><g clip-path="url(#d6bd5215d1)"><path fill="#000000" d="M 116.421875 184.46875 L 116.421875 68.289062 L 230.175781 68.289062 L 230.175781 41.449219 L 89.539062 41.449219 L 89.539062 184.46875 Z M 116.421875 184.46875 " fill-opacity="1" fill-rule="nonzero"/></g><g clip-path="url(#5768727d67)"><path fill="#000000" d="M 260.5 185.886719 L 260.5 297.355469 L 146.695312 297.355469 L 146.695312 324.199219 L 287.332031 324.199219 L 287.332031 185.886719 Z M 260.5 185.886719 " fill-opacity="1" fill-rule="nonzero"/></g><path fill="#000000" d="M 189.167969 110.78125 L 302.921875 110.78125 L 302.921875 226.910156 L 329.753906 226.910156 L 329.753906 83.886719 L 189.167969 83.886719 Z M 189.167969 110.78125 " fill-opacity="1" fill-rule="nonzero"/><path fill="#000000" d="M 187.75 254.914062 L 73.949219 254.914062 L 73.949219 143.445312 L 47.117188 143.445312 L 47.117188 281.757812 L 187.75 281.757812 Z M 187.75 254.914062 " fill-opacity="1" fill-rule="nonzero"/></svg>