<svg xmlns="http://www.w3.org/2000/svg" xmlns:xlink="http://www.w3.org/1999/xlink" width="500" zoomAndPan="magnify" viewBox="0 0 375 374.999991" height="500" preserveAspectRatio="xMidYMid meet" version="1.0"><defs><clipPath id="3ccd56142f"><path d="M 17 147.1875 L 58 147.1875 L 58 188 L 17 188 Z M 17 147.1875 " clip-rule="nonzero"/></clipPath><clipPath id="c40b49ce5b"><path d="M 33 188 L 74 188 L 74 227.4375 L 33 227.4375 Z M 33 188 " clip-rule="nonzero"/></clipPath><clipPath id="91764141cc"><path d="M 144 173 L 187 173 L 187 227.4375 L 144 227.4375 Z M 144 173 " clip-rule="nonzero"/></clipPath><clipPath id="38b32d5d29"><path d="M 189 172 L 228 172 L 228 227.4375 L 189 227.4375 Z M 189 172 " clip-rule="nonzero"/></clipPath></defs><g clip-path="url(#3ccd56142f)"><path fill="#000000" d="M 24.902344 187.78125 L 24.902344 154.804688 L 57.371094 154.804688 L 57.371094 147.1875 L 17.230469 147.1875 L 17.230469 187.78125 Z M 24.902344 187.78125 " fill-opacity="1" fill-rule="nonzero"/></g><g clip-path="url(#c40b49ce5b)"><path fill="#000000" d="M 66.027344 188.183594 L 66.027344 219.820312 L 33.542969 219.820312 L 33.542969 227.4375 L 73.683594 227.4375 L 73.683594 188.183594 Z M 66.027344 188.183594 " fill-opacity="1" fill-rule="nonzero"/></g><path fill="#000000" d="M 45.667969 166.867188 L 78.136719 166.867188 L 78.136719 199.824219 L 85.792969 199.824219 L 85.792969 159.234375 L 45.667969 159.234375 Z M 45.667969 166.867188 " fill-opacity="1" fill-rule="nonzero"/><path fill="#000000" d="M 45.261719 207.773438 L 12.777344 207.773438 L 12.777344 176.136719 L 5.121094 176.136719 L 5.121094 215.394531 L 45.261719 215.394531 Z M 45.261719 207.773438 " fill-opacity="1" fill-rule="nonzero"/><path fill="#000000" d="M 133.277344 214.5 C 129.722656 214.5 127.007812 213.507812 125.113281 211.511719 C 123.21875 209.527344 122.265625 206.769531 122.265625 203.261719 L 122.265625 180.59375 L 118.089844 180.59375 C 117.554688 180.59375 117.109375 180.421875 116.730469 180.074219 C 116.355469 179.730469 116.167969 179.214844 116.167969 178.539062 L 116.167969 174.65625 L 122.730469 173.59375 L 124.796875 162.511719 C 124.925781 161.980469 125.1875 161.578125 125.546875 161.289062 C 125.921875 161 126.398438 160.859375 126.976562 160.859375 L 132.0625 160.859375 L 132.0625 173.636719 L 142.960938 173.636719 L 142.960938 180.59375 L 132.0625 180.59375 L 132.0625 202.585938 C 132.0625 203.851562 132.382812 204.84375 133.003906 205.546875 C 133.625 206.265625 134.476562 206.609375 135.5625 206.609375 C 136.167969 206.609375 136.671875 206.539062 137.09375 206.394531 C 137.496094 206.25 137.859375 206.09375 138.160156 205.933594 C 138.464844 205.777344 138.738281 205.617188 138.972656 205.476562 C 139.203125 205.332031 139.449219 205.257812 139.695312 205.257812 C 139.984375 205.257812 140.226562 205.332031 140.414062 205.476562 C 140.605469 205.617188 140.804688 205.832031 141.007812 206.121094 L 143.957031 210.863281 C 142.527344 212.058594 140.878906 212.949219 139.027344 213.554688 C 137.179688 214.15625 135.257812 214.457031 133.261719 214.457031 Z M 133.277344 214.5 " fill-opacity="1" fill-rule="nonzero"/><g clip-path="url(#91764141cc)"><path fill="#000000" d="M 186.324219 173.292969 L 164.101562 225.023438 C 163.8125 225.714844 163.433594 226.230469 162.972656 226.589844 C 162.511719 226.949219 161.800781 227.121094 160.847656 227.121094 L 153.535156 227.121094 L 161.167969 210.820312 L 144.664062 173.292969 L 153.292969 173.292969 C 154.058594 173.292969 154.664062 173.476562 155.097656 173.851562 C 155.53125 174.226562 155.863281 174.640625 156.066406 175.117188 L 164.734375 196.160156 C 165.023438 196.878906 165.269531 197.582031 165.472656 198.300781 C 165.675781 199.019531 165.863281 199.738281 166.050781 200.472656 C 166.28125 199.738281 166.527344 199.007812 166.773438 198.273438 C 167.003906 197.554688 167.277344 196.835938 167.566406 196.117188 L 175.761719 175.117188 C 175.976562 174.585938 176.324219 174.152344 176.816406 173.808594 C 177.308594 173.464844 177.855469 173.292969 178.464844 173.292969 L 186.339844 173.292969 Z M 186.324219 173.292969 " fill-opacity="1" fill-rule="nonzero"/></g><g clip-path="url(#38b32d5d29)"><path fill="#000000" d="M 198.9375 178.824219 C 200.617188 176.957031 202.507812 175.433594 204.632812 174.28125 C 206.757812 173.117188 209.242188 172.542969 212.101562 172.542969 C 214.328125 172.542969 216.367188 173.003906 218.199219 173.921875 C 220.050781 174.84375 221.640625 176.179688 222.96875 177.933594 C 224.3125 179.6875 225.339844 181.84375 226.078125 184.417969 C 226.800781 186.988281 227.175781 189.9375 227.175781 193.257812 C 227.175781 196.289062 226.769531 199.09375 225.945312 201.679688 C 225.121094 204.265625 223.953125 206.507812 222.421875 208.40625 C 220.890625 210.304688 219.054688 211.785156 216.886719 212.863281 C 214.71875 213.925781 212.304688 214.457031 209.632812 214.457031 C 207.347656 214.457031 205.398438 214.113281 203.78125 213.410156 C 202.160156 212.703125 200.714844 211.742188 199.445312 210.503906 L 199.445312 227.121094 L 189.617188 227.121094 L 189.617188 173.292969 L 195.628906 173.292969 C 196.902344 173.292969 197.738281 173.878906 198.128906 175.074219 L 198.925781 178.824219 Z M 199.460938 203.347656 C 200.570312 204.699219 201.785156 205.648438 203.101562 206.191406 C 204.414062 206.753906 205.832031 207.027344 207.378906 207.027344 C 208.925781 207.027344 210.195312 206.753906 211.394531 206.191406 C 212.59375 205.632812 213.605469 204.800781 214.429688 203.664062 C 215.253906 202.527344 215.902344 201.105469 216.351562 199.367188 C 216.800781 197.640625 217.03125 195.601562 217.03125 193.257812 C 217.03125 190.914062 216.84375 188.871094 216.453125 187.21875 C 216.0625 185.566406 215.511719 184.230469 214.804688 183.210938 C 214.097656 182.175781 213.214844 181.425781 212.203125 180.953125 C 211.179688 180.476562 210.023438 180.234375 208.722656 180.234375 C 206.683594 180.234375 204.949219 180.664062 203.503906 181.511719 C 202.074219 182.375 200.714844 183.582031 199.445312 185.136719 L 199.445312 203.332031 Z M 199.460938 203.347656 " fill-opacity="1" fill-rule="nonzero"/></g><path fill="#000000" d="M 249.671875 172.660156 C 252.695312 172.660156 255.4375 173.148438 257.925781 174.125 C 260.410156 175.101562 262.519531 176.480469 264.28125 178.277344 C 266.046875 180.074219 267.402344 182.261719 268.359375 184.847656 C 269.3125 187.433594 269.789062 190.324219 269.789062 193.515625 C 269.789062 196.707031 269.3125 199.640625 268.359375 202.210938 C 267.402344 204.800781 266.046875 207 264.28125 208.824219 C 262.519531 210.648438 260.394531 212.042969 257.925781 213.019531 C 255.4375 214 252.695312 214.488281 249.671875 214.488281 C 246.652344 214.488281 243.851562 214 241.363281 213.019531 C 238.878906 212.042969 236.742188 210.648438 234.976562 208.824219 C 233.214844 207 231.84375 204.800781 230.886719 202.210938 C 229.921875 199.625 229.441406 196.722656 229.441406 193.515625 C 229.441406 190.308594 229.921875 187.433594 230.886719 184.847656 C 231.855469 182.261719 233.214844 180.074219 234.976562 178.277344 C 236.742188 176.480469 238.863281 175.101562 241.363281 174.125 C 243.851562 173.148438 246.625 172.660156 249.671875 172.660156 Z M 249.671875 206.957031 C 253.070312 206.957031 255.582031 205.820312 257.203125 203.546875 C 258.835938 201.277344 259.644531 197.957031 259.644531 193.585938 C 259.644531 189.21875 258.835938 185.867188 257.203125 183.582031 C 255.570312 181.28125 253.054688 180.148438 249.671875 180.148438 C 246.292969 180.148438 243.675781 181.296875 242.015625 183.613281 C 240.351562 185.925781 239.53125 189.246094 239.53125 193.601562 C 239.53125 197.957031 240.351562 201.261719 242.015625 203.546875 C 243.675781 205.835938 246.21875 206.96875 249.671875 206.96875 Z M 249.671875 206.957031 " fill-opacity="1" fill-rule="nonzero"/><path fill="#000000" d="M 276.984375 213.867188 L 276.984375 180.636719 L 273.445312 180.074219 C 272.679688 179.917969 272.058594 179.644531 271.59375 179.269531 C 271.132812 178.882812 270.902344 178.335938 270.902344 177.632812 L 270.902344 173.636719 L 276.984375 173.636719 L 276.984375 170.632812 C 276.984375 168.316406 277.332031 166.234375 278.039062 164.378906 C 278.746094 162.539062 279.746094 160.957031 281.058594 159.679688 C 282.375 158.386719 283.964844 157.394531 285.855469 156.71875 C 287.734375 156.027344 289.859375 155.683594 292.214844 155.683594 C 294.09375 155.683594 295.839844 155.925781 297.460938 156.429688 L 297.257812 161.332031 C 297.230469 161.707031 297.128906 161.992188 296.941406 162.222656 C 296.753906 162.453125 296.507812 162.625 296.203125 162.742188 C 295.898438 162.855469 295.554688 162.941406 295.148438 162.972656 C 294.742188 163 294.324219 163.027344 293.875 163.027344 C 292.707031 163.027344 291.664062 163.15625 290.753906 163.402344 C 289.84375 163.644531 289.066406 164.09375 288.429688 164.710938 C 287.792969 165.328125 287.316406 166.148438 286.984375 167.167969 C 286.652344 168.1875 286.492188 169.4375 286.492188 170.949219 L 286.492188 173.636719 L 297.113281 173.636719 L 297.113281 180.59375 L 286.808594 180.59375 L 286.808594 213.855469 L 276.984375 213.855469 Z M 276.984375 213.867188 " fill-opacity="1" fill-rule="nonzero"/><path fill="#000000" d="M 356.632812 213.867188 L 348.367188 213.867188 C 347.441406 213.867188 346.675781 213.640625 346.097656 213.179688 C 345.519531 212.71875 345.074219 212.144531 344.785156 211.453125 L 340.492188 199.78125 L 316.679688 199.78125 L 312.386719 211.453125 C 312.171875 212.058594 311.765625 212.617188 311.160156 213.121094 C 310.550781 213.625 309.785156 213.867188 308.890625 213.867188 L 300.539062 213.867188 L 323.167969 156.675781 L 334.0625 156.675781 L 356.648438 213.867188 Z M 337.746094 192.28125 L 330.753906 173.25 C 330.40625 172.398438 330.046875 171.410156 329.683594 170.242188 C 329.308594 169.078125 328.945312 167.828125 328.570312 166.492188 C 328.222656 167.84375 327.863281 169.09375 327.503906 170.273438 C 327.125 171.453125 326.78125 172.472656 326.433594 173.335938 L 319.46875 192.28125 L 337.761719 192.28125 Z M 337.746094 192.28125 " fill-opacity="1" fill-rule="nonzero"/><path fill="#000000" d="M 359.421875 156.675781 L 370.160156 156.675781 L 370.160156 213.867188 L 359.421875 213.867188 Z M 359.421875 156.675781 " fill-opacity="1" fill-rule="nonzero"/></svg>