<svg xmlns="http://www.w3.org/2000/svg" xmlns:xlink="http://www.w3.org/1999/xlink" width="160" zoomAndPan="magnify" viewBox="0 0 120 37.5" height="50" preserveAspectRatio="xMidYMid meet" version="1.0"><defs><clipPath id="2b1491c800"><path d="M 7 7.492188 L 21 7.492188 L 21 20 L 7 20 Z M 7 7.492188 " clip-rule="nonzero"/></clipPath><clipPath id="7fe9cf27cb"><path d="M 12 19 L 26 19 L 26 31.914062 L 12 31.914062 Z M 12 19 " clip-rule="nonzero"/></clipPath><clipPath id="6c072d83be"><path d="M 46 15 L 60 15 L 60 31.914062 L 46 31.914062 Z M 46 15 " clip-rule="nonzero"/></clipPath><clipPath id="43e3735015"><path d="M 60 15 L 73 15 L 73 31.914062 L 60 31.914062 Z M 60 15 " clip-rule="nonzero"/></clipPath><clipPath id="88f199abb2"><path d="M 112 10 L 116.382812 10 L 116.382812 28 L 112 28 Z M 112 10 " clip-rule="nonzero"/></clipPath></defs><g clip-path="url(#2b1491c800)"><path fill="#000000" d="M 10.207031 19.847656 L 10.207031 9.808594 L 20.167969 9.808594 L 20.167969 7.492188 L 7.855469 7.492188 L 7.855469 19.847656 Z M 10.207031 19.847656 " fill-opacity="1" fill-rule="nonzero"/></g><g clip-path="url(#7fe9cf27cb)"><path fill="#000000" d="M 22.824219 19.96875 L 22.824219 29.597656 L 12.859375 29.597656 L 12.859375 31.914062 L 25.171875 31.914062 L 25.171875 19.96875 Z M 22.824219 19.96875 " fill-opacity="1" fill-rule="nonzero"/></g><path fill="#000000" d="M 16.578125 13.480469 L 26.539062 13.480469 L 26.539062 23.511719 L 28.886719 23.511719 L 28.886719 11.15625 L 16.578125 11.15625 Z M 16.578125 13.480469 " fill-opacity="1" fill-rule="nonzero"/><path fill="#000000" d="M 16.453125 25.929688 L 6.488281 25.929688 L 6.488281 16.300781 L 4.140625 16.300781 L 4.140625 28.25 L 16.453125 28.25 Z M 16.453125 25.929688 " fill-opacity="1" fill-rule="nonzero"/><path fill="#000000" d="M 43.453125 27.976562 C 42.363281 27.976562 41.53125 27.675781 40.949219 27.070312 C 40.371094 26.464844 40.078125 25.625 40.078125 24.558594 L 40.078125 17.660156 L 38.796875 17.660156 C 38.632812 17.660156 38.496094 17.605469 38.378906 17.5 C 38.265625 17.394531 38.207031 17.238281 38.207031 17.03125 L 38.207031 15.851562 L 40.21875 15.527344 L 40.851562 12.15625 C 40.894531 11.992188 40.972656 11.871094 41.082031 11.78125 C 41.199219 11.695312 41.34375 11.652344 41.523438 11.652344 L 43.082031 11.652344 L 43.082031 15.539062 L 46.425781 15.539062 L 46.425781 17.660156 L 43.082031 17.660156 L 43.082031 24.351562 C 43.082031 24.738281 43.179688 25.039062 43.371094 25.253906 C 43.5625 25.472656 43.824219 25.578125 44.15625 25.578125 C 44.339844 25.578125 44.496094 25.554688 44.625 25.511719 C 44.75 25.46875 44.859375 25.417969 44.953125 25.371094 C 45.046875 25.324219 45.128906 25.273438 45.203125 25.230469 C 45.273438 25.1875 45.347656 25.164062 45.421875 25.164062 C 45.511719 25.164062 45.585938 25.1875 45.644531 25.230469 C 45.703125 25.273438 45.765625 25.339844 45.828125 25.429688 L 46.730469 26.871094 C 46.292969 27.234375 45.785156 27.507812 45.21875 27.691406 C 44.652344 27.875 44.0625 27.964844 43.449219 27.964844 Z M 43.453125 27.976562 " fill-opacity="1" fill-rule="nonzero"/><g clip-path="url(#6c072d83be)"><path fill="#000000" d="M 59.726562 15.4375 L 52.910156 31.179688 C 52.820312 31.390625 52.707031 31.546875 52.566406 31.65625 C 52.421875 31.765625 52.207031 31.820312 51.914062 31.820312 L 49.667969 31.820312 L 52.011719 26.859375 L 46.949219 15.4375 L 49.59375 15.4375 C 49.828125 15.4375 50.015625 15.492188 50.148438 15.605469 C 50.28125 15.71875 50.382812 15.847656 50.445312 15.992188 L 53.105469 22.394531 C 53.195312 22.613281 53.269531 22.828125 53.332031 23.046875 C 53.394531 23.265625 53.449219 23.484375 53.507812 23.707031 C 53.578125 23.484375 53.65625 23.261719 53.730469 23.039062 C 53.800781 22.820312 53.886719 22.601562 53.972656 22.382812 L 56.488281 15.992188 C 56.554688 15.828125 56.660156 15.699219 56.8125 15.59375 C 56.960938 15.488281 57.128906 15.4375 57.316406 15.4375 L 59.734375 15.4375 Z M 59.726562 15.4375 " fill-opacity="1" fill-rule="nonzero"/></g><g clip-path="url(#43e3735015)"><path fill="#000000" d="M 63.597656 17.121094 C 64.113281 16.550781 64.691406 16.085938 65.34375 15.738281 C 65.996094 15.382812 66.757812 15.207031 67.636719 15.207031 C 68.320312 15.207031 68.945312 15.347656 69.507812 15.628906 C 70.074219 15.910156 70.5625 16.316406 70.96875 16.847656 C 71.382812 17.382812 71.695312 18.039062 71.921875 18.820312 C 72.144531 19.605469 72.261719 20.503906 72.261719 21.511719 C 72.261719 22.4375 72.136719 23.289062 71.882812 24.078125 C 71.628906 24.863281 71.269531 25.546875 70.800781 26.125 C 70.332031 26.699219 69.769531 27.152344 69.105469 27.480469 C 68.4375 27.804688 67.699219 27.964844 66.878906 27.964844 C 66.179688 27.964844 65.578125 27.859375 65.082031 27.644531 C 64.585938 27.429688 64.144531 27.136719 63.753906 26.761719 L 63.753906 31.820312 L 60.738281 31.820312 L 60.738281 15.4375 L 62.582031 15.4375 C 62.972656 15.4375 63.230469 15.617188 63.351562 15.976562 L 63.59375 17.121094 Z M 63.757812 24.582031 C 64.097656 24.996094 64.472656 25.285156 64.875 25.449219 C 65.277344 25.621094 65.710938 25.703125 66.1875 25.703125 C 66.660156 25.703125 67.050781 25.621094 67.417969 25.449219 C 67.785156 25.277344 68.097656 25.027344 68.351562 24.679688 C 68.601562 24.335938 68.800781 23.902344 68.941406 23.371094 C 69.078125 22.847656 69.148438 22.226562 69.148438 21.511719 C 69.148438 20.800781 69.089844 20.179688 68.96875 19.675781 C 68.851562 19.171875 68.683594 18.765625 68.464844 18.453125 C 68.25 18.140625 67.976562 17.914062 67.667969 17.769531 C 67.351562 17.625 66.996094 17.550781 66.597656 17.550781 C 65.972656 17.550781 65.441406 17.679688 65 17.9375 C 64.558594 18.199219 64.144531 18.566406 63.753906 19.039062 L 63.753906 24.578125 Z M 63.757812 24.582031 " fill-opacity="1" fill-rule="nonzero"/></g><path fill="#000000" d="M 79.160156 15.242188 C 80.089844 15.242188 80.929688 15.390625 81.691406 15.691406 C 82.457031 15.988281 83.101562 16.40625 83.644531 16.953125 C 84.183594 17.5 84.601562 18.164062 84.894531 18.953125 C 85.1875 19.742188 85.332031 20.621094 85.332031 21.589844 C 85.332031 22.5625 85.1875 23.453125 84.894531 24.238281 C 84.601562 25.027344 84.183594 25.695312 83.644531 26.25 C 83.101562 26.804688 82.449219 27.230469 81.691406 27.527344 C 80.929688 27.824219 80.089844 27.972656 79.160156 27.972656 C 78.234375 27.972656 77.375 27.824219 76.613281 27.527344 C 75.851562 27.230469 75.195312 26.804688 74.652344 26.25 C 74.113281 25.695312 73.691406 25.027344 73.398438 24.238281 C 73.101562 23.449219 72.957031 22.566406 72.957031 21.589844 C 72.957031 20.617188 73.101562 19.742188 73.398438 18.953125 C 73.695312 18.164062 74.113281 17.5 74.652344 16.953125 C 75.195312 16.40625 75.847656 15.988281 76.613281 15.691406 C 77.375 15.390625 78.226562 15.242188 79.160156 15.242188 Z M 79.160156 25.683594 C 80.203125 25.683594 80.976562 25.335938 81.472656 24.644531 C 81.972656 23.953125 82.21875 22.941406 82.21875 21.613281 C 82.21875 20.285156 81.972656 19.265625 81.472656 18.566406 C 80.96875 17.867188 80.199219 17.523438 79.160156 17.523438 C 78.125 17.523438 77.320312 17.871094 76.8125 18.578125 C 76.300781 19.28125 76.050781 20.292969 76.050781 21.617188 C 76.050781 22.941406 76.300781 23.949219 76.8125 24.644531 C 77.320312 25.339844 78.101562 25.6875 79.160156 25.6875 Z M 79.160156 25.683594 " fill-opacity="1" fill-rule="nonzero"/><path fill="#000000" d="M 87.539062 27.785156 L 87.539062 17.671875 L 86.453125 17.5 C 86.21875 17.453125 86.027344 17.371094 85.886719 17.257812 C 85.746094 17.136719 85.671875 16.972656 85.671875 16.757812 L 85.671875 15.539062 L 87.539062 15.539062 L 87.539062 14.625 C 87.539062 13.921875 87.644531 13.289062 87.863281 12.722656 C 88.082031 12.164062 88.386719 11.683594 88.789062 11.292969 C 89.195312 10.898438 89.679688 10.597656 90.261719 10.390625 C 90.839844 10.183594 91.488281 10.078125 92.210938 10.078125 C 92.789062 10.078125 93.324219 10.152344 93.820312 10.304688 L 93.757812 11.796875 C 93.75 11.910156 93.71875 11.996094 93.660156 12.066406 C 93.605469 12.136719 93.527344 12.191406 93.4375 12.226562 C 93.34375 12.261719 93.234375 12.285156 93.113281 12.292969 C 92.988281 12.304688 92.859375 12.3125 92.722656 12.3125 C 92.363281 12.3125 92.042969 12.351562 91.765625 12.425781 C 91.484375 12.5 91.246094 12.636719 91.050781 12.824219 C 90.855469 13.011719 90.710938 13.261719 90.609375 13.574219 C 90.503906 13.882812 90.457031 14.261719 90.457031 14.722656 L 90.457031 15.539062 L 93.714844 15.539062 L 93.714844 17.660156 L 90.554688 17.660156 L 90.554688 27.78125 L 87.539062 27.78125 Z M 87.539062 27.785156 " fill-opacity="1" fill-rule="nonzero"/><path fill="#000000" d="M 111.972656 27.785156 L 109.4375 27.785156 C 109.15625 27.785156 108.917969 27.714844 108.742188 27.574219 C 108.566406 27.4375 108.429688 27.261719 108.339844 27.050781 L 107.023438 23.5 L 99.71875 23.5 L 98.402344 27.050781 C 98.335938 27.234375 98.210938 27.40625 98.023438 27.558594 C 97.835938 27.710938 97.601562 27.785156 97.328125 27.785156 L 94.765625 27.785156 L 101.707031 10.378906 L 105.050781 10.378906 L 111.980469 27.785156 Z M 106.179688 21.214844 L 104.035156 15.421875 C 103.929688 15.164062 103.816406 14.863281 103.707031 14.507812 C 103.589844 14.152344 103.480469 13.773438 103.367188 13.367188 C 103.257812 13.777344 103.148438 14.160156 103.039062 14.515625 C 102.921875 14.875 102.816406 15.1875 102.710938 15.449219 L 100.574219 21.214844 L 106.183594 21.214844 Z M 106.179688 21.214844 " fill-opacity="1" fill-rule="nonzero"/><g clip-path="url(#88f199abb2)"><path fill="#000000" d="M 112.828125 10.378906 L 116.125 10.378906 L 116.125 27.785156 L 112.828125 27.785156 Z M 112.828125 10.378906 " fill-opacity="1" fill-rule="nonzero"/></g></svg>